<svg xmlns="http://www.w3.org/2000/svg" xmlns:xlink="http://www.w3.org/1999/xlink" width="675.099" height="517.347" viewBox="0 0 675.099 517.347">
  <defs>
    <radialGradient id="radial-gradient" cx="0.475" cy="0.517" r="1.391" gradientTransform="translate(0.211) scale(0.577 1)" gradientUnits="objectBoundingBox">
      <stop offset="0" stop-color="#42e8e0"/>
      <stop offset="0.11" stop-color="#37b6bf"/>
      <stop offset="0.22" stop-color="#2c87a1"/>
      <stop offset="0.34" stop-color="#235f87"/>
      <stop offset="0.46" stop-color="#1c3f72"/>
      <stop offset="0.58" stop-color="#162561"/>
      <stop offset="0.71" stop-color="#121355"/>
      <stop offset="0.85" stop-color="#10084e"/>
      <stop offset="1" stop-color="#0f054c"/>
    </radialGradient>
    <linearGradient id="linear-gradient" y1="0.5" x2="1" y2="0.5" gradientUnits="objectBoundingBox">
      <stop offset="0" stop-color="#bcbeff"/>
      <stop offset="0.15" stop-color="#a3a7f5"/>
      <stop offset="0.39" stop-color="#8289e8"/>
      <stop offset="0.61" stop-color="#6a73df"/>
      <stop offset="0.82" stop-color="#5c66d9"/>
      <stop offset="1" stop-color="#5761d7"/>
    </linearGradient>
    <linearGradient id="linear-gradient-2" x1="0.643" y1="0.828" x2="0.357" y2="0.172" gradientUnits="objectBoundingBox">
      <stop offset="0" stop-color="#ec5242"/>
      <stop offset="0.11" stop-color="#ec5242"/>
      <stop offset="0.22" stop-color="#f27063"/>
      <stop offset="0.34" stop-color="#f27063"/>
      <stop offset="0.46" stop-color="#1c3f72"/>
      <stop offset="0.58" stop-color="#162561"/>
      <stop offset="0.71" stop-color="#121355"/>
      <stop offset="0.85" stop-color="#10084e"/>
      <stop offset="1" stop-color="#0f054c"/>
    </linearGradient>
    <clipPath id="clip-path">
      <path id="Path_9" data-name="Path 9" d="M197.294,400.2,9.388,291.7c-8.381-4.8-7.238-13.269,2.349-18.877l364.7-210.508c9.671-5.587,24.316-6.18,32.7-1.354L597.02,169.484c8.465,4.825,7.344,13.29-2.349,18.877L229.991,398.848C220.319,404.435,205.674,405.049,197.294,400.2Z" transform="translate(-3.761 -57.699)" opacity="0.5" fill="url(#radial-gradient)"/>
    </clipPath>
    <linearGradient id="linear-gradient-3" x1="0.099" y1="-0.384" x2="0.892" y2="0.768" gradientUnits="objectBoundingBox">
      <stop offset="0" stop-color="#bcbeff"/>
      <stop offset="0.23" stop-color="#aaadf8"/>
      <stop offset="0.68" stop-color="#7c83e5"/>
      <stop offset="1" stop-color="#5761d7"/>
    </linearGradient>
    <linearGradient id="linear-gradient-4" y1="0.501" x2="1" y2="0.501" gradientUnits="objectBoundingBox">
      <stop offset="0" stop-color="#e9e9fd"/>
      <stop offset="0.36" stop-color="#d3d2f9"/>
      <stop offset="0.71" stop-color="#c5c4f7"/>
      <stop offset="1" stop-color="#c0bff6"/>
    </linearGradient>
    <linearGradient id="linear-gradient-6" x1="0" y1="0.5" x2="1" y2="0.5" xlink:href="#linear-gradient-4"/>
    <linearGradient id="linear-gradient-7" x1="0.099" y1="-0.384" x2="0.893" y2="0.768" xlink:href="#linear-gradient-3"/>
    <linearGradient id="linear-gradient-8" x1="0" y1="0.5" x2="1" y2="0.5" xlink:href="#linear-gradient-4"/>
    <linearGradient id="linear-gradient-9" x1="0.099" y1="-0.383" x2="0.893" y2="0.769" xlink:href="#linear-gradient-3"/>
    <linearGradient id="linear-gradient-10" x1="0" y1="0.5" x2="1" y2="0.5" xlink:href="#linear-gradient-4"/>
    <linearGradient id="linear-gradient-11" x1="0.099" y1="-0.383" x2="0.893" y2="0.768" xlink:href="#linear-gradient-3"/>
    <linearGradient id="linear-gradient-12" x1="0.001" y1="0.5" x2="1" y2="0.5" xlink:href="#linear-gradient-4"/>
    <linearGradient id="linear-gradient-13" x1="0.099" y1="-0.382" x2="0.893" y2="0.767" xlink:href="#linear-gradient-3"/>
    <linearGradient id="linear-gradient-14" x1="0.113" y1="0.194" x2="0.87" y2="1.433" gradientUnits="objectBoundingBox">
      <stop offset="0.24" stop-color="#5761d7"/>
      <stop offset="0.39" stop-color="#7a82e5"/>
      <stop offset="0.55" stop-color="#979cf0"/>
      <stop offset="0.7" stop-color="#acaff8"/>
      <stop offset="0.85" stop-color="#b8bafd"/>
      <stop offset="1" stop-color="#bcbeff"/>
    </linearGradient>
    <linearGradient id="linear-gradient-15" x1="0.001" y1="0.5" x2="1" y2="0.5" xlink:href="#linear-gradient-4"/>
    <linearGradient id="linear-gradient-16" x1="0" y1="0.501" x2="1" y2="0.501" xlink:href="#linear-gradient-4"/>
    <clipPath id="clip-path-2">
      <path id="Path_60" data-name="Path 60" d="M227.108,222.9,203.85,236.321l-92.63-53.479V79.99l115.888,66.917Z" transform="translate(-111.22 -79.99)" fill="none"/>
    </clipPath>
  </defs>
  <g id="Asset_1" data-name="Asset 1" transform="translate(0 -71.6)">
    <g id="Layer_2" data-name="Layer 2" transform="translate(0)">
      <g id="Ñëîé_1" data-name="Ñëîé 1">
        <path id="Path_1" data-name="Path 1" d="M215.862,437.889a30.369,30.369,0,0,1-14.814-3.407l-195-112.5A10.582,10.582,0,0,1,0,313.155c0-4.233,3.09-8.3,8.465-11.407l371.6-214.529c10.095-5.841,25.4-6.476,34.221-1.418L609.113,198.3c3.915,2.243,6.074,5.4,6.074,8.825,0,4.233-3.111,8.3-8.465,11.407L235.1,433.064a39.532,39.532,0,0,1-19.237,4.825Zm-14.475-4.233c8.465,4.931,23.512,4.233,33.4-1.4L606.277,217.816c5.121-2.963,8.063-6.857,8.063-10.581,0-3.132-2.116-6.01-5.651-8.105L413.863,86.542c-8.465-4.931-23.512-4.233-33.374,1.4L8.91,302.468C3.788,305.43.847,309.324.847,313.155a9.671,9.671,0,0,0,5.629,8.105Z" transform="translate(0 91.968)" fill="#ec5242"/>
        <path id="Path_2" data-name="Path 2" d="M614.54,168.553l-28,4.825L413.851,73.785c-8.656-5.016-23.787-4.381-33.861,1.4L49.679,265.818.2,274.283v17.523h0c0,3.2,1.884,6.349,5.82,8.465L200.825,412.9c8.677,4.994,23.808,4.36,33.861-1.4l371.579-214.55c5.375-3.111,8.148-7.068,8.232-10.857h0Z" transform="translate(0.223 78.588)" fill="url(#linear-gradient)"/>
        <path id="Path_3" data-name="Path 3" d="M200.782,409.181,6.083,296.7c-8.656-4.994-7.576-13.735,2.434-19.512L380.012,62.659c10.01-5.777,25.142-6.349,33.861-1.4L608.7,173.743c8.677,4.994,7.576,13.735-2.413,19.512L234.643,407.784C224.633,413.646,209.5,414.2,200.782,409.181Z" transform="translate(0.266 64.637)" fill="#24126a"/>
        <path id="Path_4" data-name="Path 4" d="M606.225,127.051,234.645,341.58c-10.01,5.777-25.142,6.349-33.861,1.4L6.085,230.5A10.581,10.581,0,0,1,.35,223.11c-.614,3.7,1.249,7.111,5.735,9.671l194.7,112.545c8.677,4.994,23.808,4.381,33.861-1.4l371.58-214.614c5.989-3.45,8.762-7.978,8.169-12.105C613.865,120.66,611.135,124.215,606.225,127.051Z" transform="translate(0.264 130.841)" fill="#fff"/>
        <path id="Path_5" data-name="Path 5" d="M197.327,402.493,9.421,293.99C.956,289.144,2.1,280.7,11.77,275.113L376.472,64.6c9.671-5.587,24.316-6.18,32.7-1.354L597.053,171.774c8.465,4.825,7.344,13.29-2.349,18.877L230.024,401.138C220.352,406.725,205.708,407.339,197.327,402.493Z" transform="translate(4.165 66.965)" fill="#453c9e" opacity="0.51"/>
        <path id="Path_6" data-name="Path 6" d="M211.831,404.395a29.628,29.628,0,0,1-14.518-3.344L9.428,292.549a10.328,10.328,0,0,1-5.968-8.719c0-4.084,3.047-8.169,8.317-11.216l364.7-210.487c9.82-5.672,24.761-6.349,33.311-1.354l187.885,108.5a10.348,10.348,0,0,1,5.947,8.719c0,4.084-3.026,8.169-8.3,11.216L428.746,285.351,230.623,399.7A38.453,38.453,0,0,1,211.831,404.395Zm-13.9-4.381c8.211,4.741,22.6,4.127,32.1-1.354l364.68-210.508c4.91-2.815,7.7-6.518,7.7-10.158a9.248,9.248,0,0,0-5.354-7.682L409.175,61.809c-8.211-4.741-22.6-4.233-32.1,1.354L12.391,273.671c-4.91,2.815-7.788,6.518-7.788,10.158a9.206,9.206,0,0,0,5.439,7.619Z" transform="translate(3.862 64.09)" opacity="0.8" fill="url(#linear-gradient-2)"/>
        <g id="Group_2" data-name="Group 2" transform="translate(7.96 122.108)" opacity="0.1">
          <path id="Path_7" data-name="Path 7" d="M197.294,400.2,9.388,291.7c-8.381-4.8-7.238-13.269,2.349-18.877l364.7-210.508c9.671-5.587,24.316-6.18,32.7-1.354L597.02,169.484c8.465,4.825,7.344,13.29-2.349,18.877L229.991,398.848C220.319,404.435,205.674,405.049,197.294,400.2Z" transform="translate(-3.761 -57.699)" fill="none" opacity="0.5"/>
          <g id="Group_1" data-name="Group 1" clip-path="url(#clip-path)">
            <path id="Path_8" data-name="Path 8" d="M232.262,236.764c0-23.6-16.571-52.294-37.014-64.081-10.222-5.926-19.491-6.476-26.2-2.582h0l-7,4.106,2.116.19c-3.682,4.508-5.82,11.153-5.82,19.639,0,23.6,16.571,52.294,36.993,64.1,7.026,4.042,13.587,5.587,19.195,4.889l-.169,1.884,7.111-4.233h0l.3-.169h0C228.241,256.573,232.262,248.383,232.262,236.764Z" transform="translate(168.795 65.001)" fill="#9ffff8"/>
            <ellipse id="Ellipse_1" data-name="Ellipse 1" cx="30.325" cy="52.516" rx="30.325" ry="52.516" transform="translate(305.949 255.747) rotate(-29.887)" fill="#42e8e0"/>
          </g>
        </g>
        <path id="Path_10" data-name="Path 10" d="M271.738,122.824a11.47,11.47,0,0,1-10.37,0c-2.878-1.672-2.878-4.233,0-6.01a11.47,11.47,0,0,1,10.37,0C274.617,118.591,274.617,121.215,271.738,122.824Z" transform="translate(289.355 129.016)" fill="#24126a" opacity="0.4"/>
        <path id="Path_11" data-name="Path 11" d="M252.754,105.887l20.338,11.724c2.476,1.439,2.116,3.957-.7,5.608h0a10.772,10.772,0,0,1-9.693.4l-20.338-11.745c-2.476-1.439-2.116-3.936.7-5.587h0A10.772,10.772,0,0,1,252.754,105.887Z" transform="translate(268.702 117.128)" fill="#24126a" opacity="0.4"/>
        <path id="Path_12" data-name="Path 12" d="M197.954,72.592l20.338,11.745c2.476,1.439,2.116,3.936-.7,5.587h0a10.772,10.772,0,0,1-9.693.4L187.563,78.708c-2.476-1.439-2.116-3.957.7-5.608h0a10.772,10.772,0,0,1,9.693-.508Z" transform="translate(207.529 80.014)" fill="#24126a" opacity="0.4"/>
        <path id="Path_13" data-name="Path 13" d="M271.738,119.393a11.343,11.343,0,0,1-10.37,0c-2.878-1.651-2.878-4.233,0-5.989a11.47,11.47,0,0,1,10.37,0C274.617,115.054,274.617,117.742,271.738,119.393Z" transform="translate(289.355 125.209)" fill="#ec5242"/>
        <path id="Path_14" data-name="Path 14" d="M252.754,102.433l20.338,11.745c2.476,1.439,2.116,3.936-.7,5.587h0a10.708,10.708,0,0,1-9.693.4l-20.338-11.724c-2.476-1.439-2.116-3.936.7-5.608h0a10.835,10.835,0,0,1,9.693-.4Z" transform="translate(268.702 113.281)" fill="#ec5242"/>
        <path id="Path_15" data-name="Path 15" d="M197.954,69.177,218.291,80.9c2.476,1.439,2.116,3.957-.7,5.608h0a10.772,10.772,0,0,1-9.693.4L187.563,75.166c-2.476-1.439-2.116-3.936.7-5.587h0a10.772,10.772,0,0,1,9.693-.4Z" transform="translate(207.529 76.149)" fill="#ec5242"/>
        <g id="Group_4" data-name="Group 4" transform="translate(566.173 459.882)" opacity="0.3">
          <path id="Path_16" data-name="Path 16" d="M376.422,242.854v-9.5l-2.624-1.46c-.741,4.487-6.01,7.428-10.412,8.042L333.4,257.478l-13.1,4.741-41.776-21.565.952-.571c-3.577-1.672-5.481-5.481-7.428-8.952l-2.815,1.672-1.672.466V243h0a6.222,6.222,0,0,0,3.682,5.121l41.86,24.168a19.639,19.639,0,0,0,17.777,0l41.86-24.168a6.349,6.349,0,0,0,3.682-5.037v-.254Z" transform="translate(-267.496 -201.873)" fill="url(#linear-gradient-3)"/>
          <path id="Path_17" data-name="Path 17" d="M334.645,239.465l-29.988,17.544-11.407,4.127v12.825a18.156,18.156,0,0,0,8.888-2.116L344,247.676a6.349,6.349,0,0,0,3.682-5.037v-.254h0v-9.5l-2.391-1.333h-.254C344.21,235.973,339,238.851,334.645,239.465Z" transform="translate(-238.819 -201.404)" fill="#0f054c" opacity="0.3"/>
          <path id="Path_18" data-name="Path 18" d="M313.073,278.032l-41.86-24.168c-4.91-2.836-4.91-7.428,0-10.264l41.86-24.168a19.639,19.639,0,0,1,17.777,0L372.71,243.6c4.91,2.836,4.91,7.428,0,10.264l-41.86,24.168A19.639,19.639,0,0,1,313.073,278.032Z" transform="translate(-267.53 -217.305)" fill="url(#linear-gradient-4)"/>
          <g id="Group_3" data-name="Group 3" opacity="0.3">
            <path id="Path_19" data-name="Path 19" d="M313.073,278.032l-41.86-24.168c-4.91-2.836-4.91-7.428,0-10.264l41.86-24.168a19.639,19.639,0,0,1,17.777,0L372.71,243.6c4.91,2.836,4.91,7.428,0,10.264l-41.86,24.168A19.639,19.639,0,0,1,313.073,278.032Z" transform="translate(-267.53 -217.305)" fill="#0f054c"/>
          </g>
        </g>
        <path id="Path_20" data-name="Path 20" d="M321.278,264.1a16.232,16.232,0,0,1-7.894-1.862l-41.86-24.168a5.058,5.058,0,0,1,0-9.545l41.86-24.168a17.438,17.438,0,0,1,15.788,0l41.86,24.168a5.058,5.058,0,0,1,0,9.544l-41.818,24.168A16.232,16.232,0,0,1,321.278,264.1Zm0-60.907a15.237,15.237,0,0,0-7.513,1.8L271.9,229.159a4.233,4.233,0,0,0,0,8.254l41.86,24.168a16.55,16.55,0,0,0,15.047,0l41.86-24.126a4.233,4.233,0,0,0,0-8.254l-41.86-24.168a15.322,15.322,0,0,0-7.534-1.841Z" transform="translate(299.326 226.014)" fill="#ec5242"/>
        <path id="Path_21" data-name="Path 21" d="M376.422,221.391V207.063L373.8,205.6c-.741,4.465-6.01,7.407-10.412,8.021L333.4,231.168l-13.1,4.741-41.776-21.565.952-.571c-3.577-1.651-5.481-5.481-7.428-8.952l-2.815,1.672-1.672.466v14.581h0a6.349,6.349,0,0,0,3.682,5.143l41.86,24.168a19.766,19.766,0,0,0,17.777,0l41.86-24.168a6.349,6.349,0,0,0,3.682-5.058v-.233Z" transform="translate(298.677 228.64)" fill="#ec5242" opacity="0.4"/>
        <path id="Path_22" data-name="Path 22" d="M376.422,212.814v-9.481l-2.624-1.46c-.741,4.465-6.01,7.428-10.412,8.042L333.4,227.438l-13.1,4.741-41.776-21.565.952-.571c-3.577-1.651-5.481-5.481-7.428-8.952l-2.815,1.672-1.672.466v9.735h0a6.2,6.2,0,0,0,3.682,5.121l41.86,24.168a19.639,19.639,0,0,0,17.777,0l41.86-24.168a6.349,6.349,0,0,0,3.682-5.037v-.233Z" transform="translate(298.677 224.476)" fill="url(#linear-gradient-3)"/>
        <path id="Path_23" data-name="Path 23" d="M334.645,209.368l-29.988,17.523-11.407,4.233v12.825a18.158,18.158,0,0,0,8.888-2.116L344,217.664a6.349,6.349,0,0,0,3.682-5.037v-.233h0v-9.481l-2.391-1.333h-.254C344.21,205.855,339,208.818,334.645,209.368Z" transform="translate(327.354 225.023)" fill="#0f054c" opacity="0.3"/>
        <path id="Path_24" data-name="Path 24" d="M313.073,248.032l-41.86-24.168c-4.91-2.836-4.91-7.428,0-10.264l41.86-24.168a19.639,19.639,0,0,1,17.777,0L372.71,213.6c4.91,2.836,4.91,7.428,0,10.264l-41.86,24.168a19.639,19.639,0,0,1-17.777,0Z" transform="translate(298.643 209.088)" fill="url(#linear-gradient-6)"/>
        <path id="Path_25" data-name="Path 25" d="M372.69,206.959l-41.86,24.189a19.639,19.639,0,0,1-17.777,0l-41.86-24.168a6.645,6.645,0,0,1-3.64-4.55,5.968,5.968,0,0,0,3.64,5.735l41.86,24.168a19.639,19.639,0,0,0,17.777,0l41.86-24.168a5.968,5.968,0,0,0,3.64-5.714A6.6,6.6,0,0,1,372.69,206.959Z" transform="translate(298.663 225.972)" fill="#fff"/>
        <g id="Group_6" data-name="Group 6" transform="translate(379.791 516.366)" opacity="0.3">
          <path id="Path_26" data-name="Path 26" d="M288.322,269.5v-9.481l-2.624-1.46c-.741,4.465-6.01,7.428-10.412,8.042L245.3,284.128l-13.1,4.74L190.422,267.3l.952-.55c-3.555-1.672-5.481-5.5-7.428-8.973l-2.815,1.672-1.672.466v9.735h0a6.2,6.2,0,0,0,3.682,5.121l41.9,24.189a19.766,19.766,0,0,0,17.777,0l41.86-24.189a6.349,6.349,0,0,0,3.682-5.037V269.5Z" transform="translate(-179.46 -228.607)" fill="url(#linear-gradient-7)"/>
          <path id="Path_27" data-name="Path 27" d="M246.575,266.175,216.587,283.7l-11.407,4.127v12.825a18.327,18.327,0,0,0,8.888-2.116l41.86-24.189a6.349,6.349,0,0,0,3.682-5.037v-.233h0v-9.481l-2.391-1.333h-.254C256.14,262.556,250.934,265.455,246.575,266.175Z" transform="translate(-150.749 -228.071)" fill="#0f054c" opacity="0.3"/>
          <path id="Path_28" data-name="Path 28" d="M225.037,304.7l-41.9-24.168c-4.889-2.836-4.889-7.428,0-10.264l41.9-24.147a19.639,19.639,0,0,1,17.777,0l41.86,24.168c4.91,2.836,4.91,7.428,0,10.264l-41.86,24.168A19.639,19.639,0,0,1,225.037,304.7Z" transform="translate(-179.452 -243.995)" fill="url(#linear-gradient-8)"/>
          <g id="Group_5" data-name="Group 5" transform="translate(0.016)" opacity="0.3">
            <path id="Path_29" data-name="Path 29" d="M225.037,304.7l-41.9-24.168c-4.889-2.836-4.889-7.428,0-10.264l41.9-24.147a19.639,19.639,0,0,1,17.777,0l41.86,24.168c4.91,2.836,4.91,7.428,0,10.264l-41.86,24.168A19.639,19.639,0,0,1,225.037,304.7Z" transform="translate(-179.467 -243.995)" fill="#0f054c"/>
          </g>
        </g>
        <path id="Path_30" data-name="Path 30" d="M233.208,288.583a16.105,16.105,0,0,1-7.873-1.884l-41.882-24.168a5.058,5.058,0,0,1,0-9.544l41.86-24.168a17.565,17.565,0,0,1,15.788,0l41.86,24.168a5.058,5.058,0,0,1,0,9.544L241.1,286.7a16.253,16.253,0,0,1-7.894,1.883Zm-7.513-2.518a16.676,16.676,0,0,0,15.047,0L282.6,261.9a4.36,4.36,0,0,0,0-8.275l-41.86-24.168a16.676,16.676,0,0,0-15.047,0l-41.86,24.168a4.36,4.36,0,0,0,0,8.275Z" transform="translate(201.014 253.338)" fill="#ec5242"/>
        <path id="Path_31" data-name="Path 31" d="M288.322,245.838V231.511l-2.624-1.46c-.741,4.465-6.01,7.428-10.412,8.042L245.3,255.616,232.2,260.4l-41.776-21.565.952-.55c-3.555-1.672-5.481-5.5-7.428-8.973l-2.815,1.672-1.672.466v14.581h0a6.349,6.349,0,0,0,3.682,5.143l41.9,24.041a19.766,19.766,0,0,0,17.777,0l41.86-24.168a6.349,6.349,0,0,0,3.682-5.037v-.254Z" transform="translate(200.331 255.978)" fill="#ec5242" opacity="0.4"/>
        <path id="Path_32" data-name="Path 32" d="M288.322,237.307v-9.481l-2.624-1.46c-.741,4.465-6.01,7.428-10.412,8.042l-29.988,17.5-13.1,4.719-41.776-21.565.952-.55c-3.555-1.672-5.481-5.481-7.428-8.973l-2.815,1.672-1.672.487v9.714h0a6.349,6.349,0,0,0,3.682,5.143l41.9,24.168a19.766,19.766,0,0,0,17.777,0l41.86-24.168a6.349,6.349,0,0,0,3.682-5.058v-.233Z" transform="translate(200.331 251.77)" fill="url(#linear-gradient-9)"/>
        <path id="Path_33" data-name="Path 33" d="M246.575,233.927l-29.988,17.5-11.407,4.233v12.7a18.094,18.094,0,0,0,8.888-2.116l41.86-24.168a6.349,6.349,0,0,0,3.682-5.058v-.233h0V227.3l-2.391-1.333h-.254C256.14,230.414,250.934,233.314,246.575,233.927Z" transform="translate(229.042 252.25)" fill="#0f054c" opacity="0.3"/>
        <path id="Path_34" data-name="Path 34" d="M225.037,272.484l-41.9-24.253c-4.889-2.815-4.889-7.428,0-10.264l41.9-24.083a19.766,19.766,0,0,1,17.777,0l41.86,24.168c4.91,2.836,4.91,7.449,0,10.264l-41.86,24.168a19.639,19.639,0,0,1-17.777,0Z" transform="translate(200.339 236.401)" fill="url(#linear-gradient-10)"/>
        <path id="Path_35" data-name="Path 35" d="M227.8,264.67a14.813,14.813,0,0,1-7.132-1.693l-32.7-18.9a4.592,4.592,0,0,1,0-8.656l32.7-18.877a15.83,15.83,0,0,1,14.264,0l32.7,18.877a5.227,5.227,0,0,1,3.069,4.338,5.164,5.164,0,0,1-3.069,4.233l-32.7,18.9a14.814,14.814,0,0,1-7.132,1.778Zm-6.751-2.328a15.068,15.068,0,0,0,13.523,0l32.7-18.9a4.508,4.508,0,0,0,2.688-3.682,4.571,4.571,0,0,0-2.688-3.7l-32.7-18.772a15,15,0,0,0-13.523,0l-32.718,18.877a4.571,4.571,0,0,0-2.688,3.7,4.508,4.508,0,0,0,2.688,3.682Z" transform="translate(206.421 239.834)" fill="#5351af"/>
        <path id="Path_36" data-name="Path 36" d="M284.61,231.389l-41.86,24.168a19.639,19.639,0,0,1-17.777,0l-41.86-24.168a6.582,6.582,0,0,1-3.619-4.529,5.883,5.883,0,0,0,3.619,5.714l41.9,24.21a19.639,19.639,0,0,0,17.777,0l41.86-24.168c2.709-1.566,3.936-3.661,3.64-5.714a6.56,6.56,0,0,1-3.682,4.487Z" transform="translate(200.361 253.243)" fill="#fff"/>
        <g id="Group_8" data-name="Group 8" transform="translate(21.729 179.875)" opacity="0.3">
          <path id="Path_37" data-name="Path 37" d="M119.141,110.514v-9.481l-2.624-1.46c-.741,4.487-6.01,7.428-10.412,8.042L76.117,125.159l-13.1,4.719L21.241,108.313l.973-.55c-3.577-1.672-5.5-5.481-7.428-8.973l-2.815,1.693-1.672.466v9.714h0a6.349,6.349,0,0,0,3.6,5.143l41.882,24.168a19.639,19.639,0,0,0,17.777,0l41.924-24.168a6.349,6.349,0,0,0,3.661-5.037Z" transform="translate(-10.231 -69.596)" fill="url(#linear-gradient-11)"/>
          <path id="Path_38" data-name="Path 38" d="M77.416,107.22,47.428,124.679,36,128.785v12.825a18.158,18.158,0,0,0,8.888-2.116l41.9-24.168a6.349,6.349,0,0,0,3.661-5.037v-.254h0v-9.481L88.061,99.22h-.254C87,103.622,81.776,106.521,77.416,107.22Z" transform="translate(18.458 -69.116)" fill="#0f054c" opacity="0.3"/>
          <path id="Path_39" data-name="Path 39" d="M55.879,145.743,13.934,121.575c-4.889-2.836-4.889-7.449,0-10.264L55.858,87.122a19.682,19.682,0,0,1,17.8,0l41.86,24.189c4.889,2.815,4.889,7.428,0,10.264l-41.86,24.168A19.766,19.766,0,0,1,55.879,145.743Z" transform="translate(-10.268 -84.995)" fill="url(#linear-gradient-12)"/>
          <g id="Group_7" data-name="Group 7" opacity="0.3">
            <path id="Path_40" data-name="Path 40" d="M55.879,145.743,13.934,121.575c-4.889-2.836-4.889-7.449,0-10.264L55.858,87.122a19.682,19.682,0,0,1,17.8,0l41.86,24.189c4.889,2.815,4.889,7.428,0,10.264l-41.86,24.168A19.766,19.766,0,0,1,55.879,145.743Z" transform="translate(-10.268 -84.995)" fill="#0f054c"/>
          </g>
        </g>
        <path id="Path_41" data-name="Path 41" d="M64.013,132.5a16.02,16.02,0,0,1-7.894-1.884L14.3,106.468a5.037,5.037,0,0,1,0-9.523l41.86-24.168a17.4,17.4,0,0,1,15.766,0l41.86,24.168a5.037,5.037,0,0,1,0,9.523l-41.86,24.168A15.872,15.872,0,0,1,64.013,132.5Zm0-60.907a15.322,15.322,0,0,0-7.534,1.8L14.661,97.579a4.233,4.233,0,0,0,0,8.254L56.521,130a16.549,16.549,0,0,0,15.047,0l41.86-24.168a4.233,4.233,0,0,0,0-8.254L71.568,73.411a15.3,15.3,0,0,0-7.555-1.8Z" transform="translate(12.174 79.132)" fill="#ec5242"/>
        <path id="Path_42" data-name="Path 42" d="M119.141,89.811V75.462L116.517,74c-.741,4.487-6.01,7.428-10.412,8.042L76.117,99.588l-13.1,4.719L21.241,82.763l.973-.571c-3.577-1.672-5.5-5.481-7.428-8.952l-2.815,1.608-1.672.466V89.9h0a6.349,6.349,0,0,0,3.6,5.185l41.945,24.21a19.639,19.639,0,0,0,17.777,0l41.86-24.21a6.349,6.349,0,0,0,3.661-5.037Z" transform="translate(11.498 81.758)" fill="#ec5242" opacity="0.4"/>
        <path id="Path_43" data-name="Path 43" d="M119.141,81.245v-9.5L116.517,70.3c-.741,4.465-6.01,7.407-10.412,8.021L76.117,95.954l-13.1,4.656L21.241,79.023l.973-.571c-3.577-1.672-5.5-5.481-7.428-8.952l-2.815,1.672-1.672.466v9.735h0a6.349,6.349,0,0,0,3.6,5.143l41.945,24.253a19.639,19.639,0,0,0,17.777,0l41.86-24.253a6.349,6.349,0,0,0,3.661-5.037Z" transform="translate(11.498 77.583)" fill="url(#linear-gradient-13)"/>
        <path id="Path_44" data-name="Path 44" d="M77.394,77.845,47.406,95.474,36.02,99.706v12.7a18.158,18.158,0,0,0,8.888-2.116l41.86-24.253A6.349,6.349,0,0,0,90.43,81v-.233h0v-9.5L88.039,69.93h-.254C86.98,74.311,81.753,77.252,77.394,77.845Z" transform="translate(40.209 78.063)" fill="#0f054c" opacity="0.3"/>
        <path id="Path_45" data-name="Path 45" d="M19.848,92.661l39.659-22.9a6.349,6.349,0,0,1,5.693,0l38.982,22.5-.444.254c4.4-.614,9.671-3.555,10.412-8.021L70.407,60.155l-12.7-3.365-10.37,6.095L12.42,83.709C14.346,87.18,16.272,91.1,19.848,92.661Z" transform="translate(13.864 63.395)" fill="url(#linear-gradient-14)"/>
        <path id="Path_46" data-name="Path 46" d="M62.322,58.017,57.645,56.79l-10.37,6.095L12.42,83.709c1.926,3.471,3.852,7.28,7.428,8.952l39.659-22.9a5.947,5.947,0,0,1,2.815-.677Z" transform="translate(13.864 63.395)" fill="#0f054c" opacity="0.3"/>
        <path id="Path_47" data-name="Path 47" d="M55.879,116.442,13.934,92.3c-4.889-2.836-4.889-7.428,0-10.264L55.858,57.842a19.682,19.682,0,0,1,17.8,0l41.86,24.168c4.889,2.836,4.889,7.428,0,10.264l-41.86,24.168a19.639,19.639,0,0,1-17.777,0ZM67.6,61.418a6.349,6.349,0,0,0-5.693,0L20.05,85.5a1.735,1.735,0,0,0,0,3.28L61.91,112.95a6.349,6.349,0,0,0,5.693,0l41.86-24.168a1.735,1.735,0,0,0,0-3.28Z" transform="translate(11.462 62.195)" fill="url(#linear-gradient-15)"/>
        <path id="Path_48" data-name="Path 48" d="M104.922,82.894,63.062,58.725a6.349,6.349,0,0,0-5.693,0L15.509,82.894c-1.037.593-1.4,1.46-1.037,2.116a2.328,2.328,0,0,1,1.037-1.037l41.86-24.062a6.349,6.349,0,0,1,5.693,0l41.86,24.168a2.328,2.328,0,0,1,1.037,1.037C106.319,84.354,105.98,83.486,104.922,82.894Z" transform="translate(16.003 64.803)" fill="#fff"/>
        <path id="Path_49" data-name="Path 49" d="M115.494,75.411,73.634,99.558a19.639,19.639,0,0,1-17.777,0L13.912,75.411a6.6,6.6,0,0,1-3.619-4.55,5.926,5.926,0,0,0,3.619,5.714l41.945,24.232a19.639,19.639,0,0,0,17.777,0l41.86-24.232a5.926,5.926,0,0,0,3.619-5.735A6.6,6.6,0,0,1,115.494,75.411Z" transform="translate(11.484 79.079)" fill="#fff"/>
        <path id="Path_50" data-name="Path 50" d="M56.125,115.3,14.264,91.134c-4.233-2.455-4.233-6.349,0-8.91l41.86-24.253a17.079,17.079,0,0,1,15.428,0l41.86,24.253c4.233,2.455,4.233,6.455,0,8.91L71.553,115.3A17.079,17.079,0,0,1,56.125,115.3ZM67.87,60.278a8.867,8.867,0,0,0-8.063,0L17.947,84.361a2.455,2.455,0,0,0,0,4.635l41.86,24.168a8.867,8.867,0,0,0,8.063,0L109.731,89a2.455,2.455,0,0,0,0-4.635Z" transform="translate(12.38 62.658)" fill="url(#linear-gradient-16)"/>
        <path id="Path_51" data-name="Path 51" d="M63.06,58.725a6.349,6.349,0,0,0-5.693,0L15.506,82.894a1.735,1.735,0,0,0,0,3.28l41.86,24.168a6.349,6.349,0,0,0,5.693,0l41.86-24.168a1.735,1.735,0,0,0,0-3.28Z" transform="translate(16.005 64.803)" fill="#ec5242" opacity="0.4"/>
        <path id="Path_53" data-name="Path 53" d="M232.262,163.182c0-23.6-16.571-52.294-37.014-64.1-10.222-5.9-19.491-6.349-26.2-2.561h0l-7,4.084,2.116.19c-3.682,4.508-5.82,11.174-5.82,19.66,0,23.6,16.571,52.294,36.993,64.081,7.026,4.063,13.587,5.587,19.195,4.889l-.169,1.884,7.111-4.233h0l.3-.169h0C228.241,182.99,232.262,174.779,232.262,163.182Z" transform="translate(176.755 105.017)" fill="#f27063"/>
        <ellipse id="Ellipse_2" data-name="Ellipse 2" cx="30.221" cy="52.336" rx="30.221" ry="52.336" transform="translate(312.601 220.763) rotate(-30)" fill="#ec5242"/>
        <path id="Path_54" data-name="Path 54" d="M177.885,126.9c13.692-19.195,16.93-52.188,7.068-73.668-4.91-10.751-12.126-16.571-19.851-17.29h0l-8.084-.741,1.545,1.333c-5.629,1.545-11.238,5.714-16.169,12.7-13.692,19.216-16.93,52.209-7.068,73.668,3.365,7.386,7.809,12.444,12.7,15.132L146.8,139.47l8.19.741h.423C163.113,140.7,171.134,136.359,177.885,126.9Z" transform="translate(144.681 39.294)" fill="#f27063"/>
        <ellipse id="Ellipse_3" data-name="Ellipse 3" cx="52.336" cy="30.221" rx="52.336" ry="30.221" transform="translate(261.587 175.792) rotate(-84.51)" fill="#ec5242"/>
        <g id="Group_9" data-name="Group 9" transform="translate(238.594 243.889)" opacity="0.1">
          <path id="Path_55" data-name="Path 55" d="M197.3,188.415c0-23.6-16.571-52.294-37.014-64.1-10.243-5.9-19.512-6.455-26.2-2.561h0l-7,4.084,2.116.19c-3.682,4.529-5.841,11.174-5.841,19.66,0,23.6,16.571,52.294,37.014,64.1,7.026,4.042,13.587,5.587,19.174,4.889l-.148,1.884,7.111-4.233h0l.275-.169h0C193.282,208.224,197.3,200.034,197.3,188.415Z" transform="translate(-100.888 -110.754)" fill="#9ffff8"/>
          <ellipse id="Ellipse_4" data-name="Ellipse 4" cx="30.221" cy="52.336" rx="30.221" ry="52.336" transform="translate(0 30.221) rotate(-30)" fill="#42e8e0"/>
        </g>
        <path id="Path_56" data-name="Path 56" d="M191.245,231.056c-25.523,0-51.066-5.608-70.494-16.825-18.9-10.92-29.311-25.4-29.311-40.929s10.412-29.988,29.311-40.908c38.855-22.433,102.111-22.433,140.988,0,18.9,10.92,29.311,25.4,29.29,40.908s-10.391,30.009-29.29,40.929l-.19-.317.19.317C242.29,225.448,216.767,231.056,191.245,231.056Zm0-114.767c-25.4,0-50.791,5.587-70.134,16.74-18.666,10.772-28.93,25.078-28.93,40.21s10.264,29.5,28.93,40.21c38.665,22.348,101.582,22.348,140.247,0h0c18.666-10.772,28.951-25.057,28.951-40.21s-10.285-29.5-28.951-40.21C242.036,121.877,216.64,116.29,191.245,116.29Z" transform="translate(102.074 129.011)" fill="#ec5242" opacity="0.4"/>
        <path id="Path_57" data-name="Path 57" d="M205.388,254.692c-32.4,0-64.8-7.111-89.456-21.353C91.955,219.5,78.77,201.086,78.77,181.468s13.185-38.093,37.162-51.849c49.31-28.485,129.581-28.485,178.912,0,23.956,13.841,37.162,32.252,37.162,51.849s-13.206,38.093-37.162,51.87C270.189,247.581,237.789,254.692,205.388,254.692Zm0-145.707c-32.274,0-64.526,7.09-89.1,21.269-23.724,13.692-36.8,31.893-36.8,51.214s13.079,37.522,36.8,51.236c49.119,28.358,129.094,28.358,178.171,0,23.745-13.692,36.8-31.893,36.8-51.236s-13.058-37.522-36.8-51.214C269.914,116.181,237.64,108.985,205.388,108.985Z" transform="translate(87.931 120.845)" fill="#ec5242" opacity="0.2"/>
        <path id="Path_58" data-name="Path 58" d="M180.1,212.437c-20.126,0-40.21-4.423-55.553-13.269-14.814-8.613-23.131-20.084-23.131-32.295s8.211-23.681,23.131-32.274c30.623-17.692,80.419-17.692,111.106,0,14.814,8.592,23.11,20.063,23.11,32.274s-8.211,23.681-23.11,32.295l-.19-.317.19.317C220.335,208.014,200.209,212.437,180.1,212.437Zm0-90.387c-20,0-39.977,4.4-55.193,13.185-14.666,8.465-22.75,19.7-22.75,31.639s8.084,23.279,22.75,31.744c30.432,17.565,79.954,17.565,110.386,0,14.666-8.465,22.75-19.7,22.75-31.744s-8.084-23.173-22.771-31.639C220.06,126.451,200,122.05,180.1,122.05Z" transform="translate(113.215 135.44)" fill="#ec5242"/>
        <g id="Group_10" data-name="Group 10" transform="translate(235.375 169.283)" clip-path="url(#clip-path-2)">
          <path id="Path_59" data-name="Path 59" d="M197.3,188.415c0-23.6-16.571-52.294-37.014-64.1-10.243-5.9-19.512-6.455-26.2-2.561h0l-7,4.084,2.116.19c-3.682,4.529-5.841,11.174-5.841,19.66,0,23.6,16.571,52.294,37.014,64.1,7.026,4.042,13.587,5.587,19.174,4.889l-.148,1.884,7.111-4.233h0l.275-.169h0C193.282,208.224,197.3,200.034,197.3,188.415Z" transform="translate(-97.668 -36.148)" fill="#f27063"/>
          <ellipse id="Ellipse_5" data-name="Ellipse 5" cx="30.221" cy="52.336" rx="30.221" ry="52.336" transform="translate(3.219 104.827) rotate(-30)" fill="#ec5242"/>
        </g>
        <path id="Path_61" data-name="Path 61" d="M154.283,247.073,38.077,179.986a5.143,5.143,0,0,1,0-8.91l17.735-10.349a19.258,19.258,0,0,1,19.174,0l116.227,67.108a5.143,5.143,0,0,1,0,8.91l-17.756,10.328A19.153,19.153,0,0,1,154.283,247.073Z" transform="translate(39.633 176.567)" fill="#24126a" opacity="0.4"/>
        <path id="Path_62" data-name="Path 62" d="M73.952,174.557l-18.6-10.73,3.7-2.137,18.6,10.73Z" transform="translate(61.787 180.494)" fill="#ec5242"/>
        <path id="Path_63" data-name="Path 63" d="M91.934,185.309l-5.714-3.3,3.7-2.137,5.714,3.3Z" transform="translate(96.247 200.788)" fill="#ec5242"/>
        <path id="Path_64" data-name="Path 64" d="M72.244,173.659l-5.714-3.3,3.7-2.137,5.714,3.3Z" transform="translate(74.267 187.784)" fill="#ec5242"/>
        <path id="Path_65" data-name="Path 65" d="M164.1,242.56a19.364,19.364,0,0,1-9.777-2.624L38.094,172.828a5.546,5.546,0,0,1,0-9.629l17.735-10.327a19.639,19.639,0,0,1,19.6,0l116.227,67.108a5.481,5.481,0,0,1,2.772,4.8,5.545,5.545,0,0,1-2.772,4.825L173.9,239.936A19.491,19.491,0,0,1,164.1,242.56ZM65.627,151.094a18.687,18.687,0,0,0-9.375,2.5L38.5,163.919a4.741,4.741,0,0,0,0,8.19l116.227,67.108a18.772,18.772,0,0,0,18.75,0l17.8-10.349a4.719,4.719,0,0,0,0-8.169L75,153.591a18.751,18.751,0,0,0-9.375-2.5Z" transform="translate(39.405 167.726)" fill="#ec5242"/>
        <path id="Path_66" data-name="Path 66" d="M225.037,272.484l-41.9-24.253c-4.889-2.815-4.889-7.428,0-10.264l41.9-24.083a19.766,19.766,0,0,1,17.777,0l41.86,24.168c4.91,2.836,4.91,7.449,0,10.264l-41.86,24.168a19.639,19.639,0,0,1-17.777,0Z" transform="translate(-157.753 -92.599)" fill="url(#linear-gradient-10)"/>
        <path id="Path_67" data-name="Path 67" d="M227.8,264.67a14.813,14.813,0,0,1-7.132-1.693l-32.7-18.9a4.592,4.592,0,0,1,0-8.656l32.7-18.877a15.83,15.83,0,0,1,14.264,0l32.7,18.877a5.227,5.227,0,0,1,3.069,4.338,5.164,5.164,0,0,1-3.069,4.233l-32.7,18.9a14.814,14.814,0,0,1-7.132,1.778Zm-6.751-2.328a15.068,15.068,0,0,0,13.523,0l32.7-18.9a4.508,4.508,0,0,0,2.688-3.682,4.571,4.571,0,0,0-2.688-3.7l-32.7-18.772a15,15,0,0,0-13.523,0l-32.718,18.877a4.571,4.571,0,0,0-2.688,3.7,4.508,4.508,0,0,0,2.688,3.682Z" transform="translate(-151.578 -90.318)" fill="#5351af"/>
      </g>
    </g>
  </g>
</svg>
