<svg xmlns="http://www.w3.org/2000/svg" width="22.5" height="36" viewBox="0 0 22.5 36">
  <g id="Group_11" data-name="Group 11" transform="translate(-1108.75 -1133)">
    <path id="Icon_awesome-mobile" data-name="Icon awesome-mobile" d="M19.125,0H3.375A3.376,3.376,0,0,0,0,3.375v29.25A3.376,3.376,0,0,0,3.375,36h15.75A3.376,3.376,0,0,0,22.5,32.625V3.375A3.376,3.376,0,0,0,19.125,0ZM11.25,33.75A2.25,2.25,0,1,1,13.5,31.5,2.248,2.248,0,0,1,11.25,33.75Z" transform="translate(1108.75 1133)" fill="#f27063"/>
    <path id="Icon_material-done" data-name="Icon material-done" d="M8.766,15.34l-2.75-2.75-.917.917,3.666,3.666,7.857-7.857L15.706,8.4Z" transform="translate(1109.139 1137.55)" fill="#fff"/>
  </g>
</svg>
