<svg xmlns="http://www.w3.org/2000/svg" width="28.8" height="34.56" viewBox="0 0 28.8 34.56">
  <path id="Icon_map-locksmith" data-name="Icon map-locksmith" d="M31.075,15.12H29.52V8.9c0-4.088-4.1-8.185-8.189-8.185H14.5C10.418.72,6.48,4.817,6.48,8.9V15.12H4.759a1.544,1.544,0,0,0-1.159,1.2v18.33c0,.431.672.635,1.159.635H31.075c.489,0,1.325-.2,1.325-.635V16.315a1.76,1.76,0,0,0-1.325-1.2ZM21.393,32.4H14.445L15.9,25.224a3.723,3.723,0,0,1-1.458-2.956,3.527,3.527,0,0,1,3.474-3.524,3.428,3.428,0,0,1,3.475,3.406,4,4,0,0,1-1.457,3.094ZM24.48,15.12H11.52V8.9A2.944,2.944,0,0,1,14.574,5.76h6.688A3.076,3.076,0,0,1,24.48,8.9Z" transform="translate(-3.6 -0.72)" fill="#f27063"/>
</svg>
