<svg xmlns="http://www.w3.org/2000/svg" width="33.996" height="33.996" viewBox="0 0 33.996 33.996">
  <path id="Icon_metro-chart-bars2" data-name="Icon metro-chart-bars2" d="M13,15.5H5.713A1.218,1.218,0,0,0,4.5,16.711V38.566A1.218,1.218,0,0,0,5.713,39.78H13a1.218,1.218,0,0,0,1.214-1.214V16.711A1.218,1.218,0,0,0,13,15.5Zm0,21.855H5.713V27.639H13v9.713ZM25.139,10.641H17.854a1.218,1.218,0,0,0-1.214,1.214V38.566a1.218,1.218,0,0,0,1.214,1.214h7.285a1.218,1.218,0,0,0,1.214-1.214V11.855a1.218,1.218,0,0,0-1.214-1.214Zm0,26.711H17.854V25.21h7.285V37.352ZM37.281,5.784H30A1.218,1.218,0,0,0,28.782,7V38.566A1.218,1.218,0,0,0,30,39.78h7.285a1.218,1.218,0,0,0,1.214-1.214V7a1.218,1.218,0,0,0-1.214-1.214Zm0,31.568H30V22.782h7.285v14.57Z" transform="translate(-4.499 -5.784)" fill="#f27063"/>
</svg>
