<svg xmlns="http://www.w3.org/2000/svg" xmlns:xlink="http://www.w3.org/1999/xlink" viewBox="0 0 750 500"><defs><style>.cls-1{isolation:isolate;}.cls-2{fill:#fff;}.cls-3{font-size:20px;font-family:Roboto-Black, Roboto Black;font-weight:800;letter-spacing:0.15em;}.cls-10,.cls-3{fill:#2d2042;}.cls-4{letter-spacing:0.16em;}.cls-5{letter-spacing:0.13em;}.cls-6{letter-spacing:0.15em;}.cls-19,.cls-55,.cls-7{font-size:8px;fill:#7ba5b2;font-family:Roboto-Regular, Roboto Regular;}.cls-7{letter-spacing:0.4em;}.cls-55,.cls-8{letter-spacing:0.46em;}.cls-9{letter-spacing:0.48em;}.cls-11{fill:url(#Degradado_sin_nombre_23);}.cls-12{fill:url(#Degradado_sin_nombre_22);}.cls-13{fill:url(#Degradado_sin_nombre_22-2);}.cls-14{fill:url(#Degradado_sin_nombre_27);}.cls-15{fill:url(#Degradado_sin_nombre_27-2);}.cls-16{fill:url(#Degradado_sin_nombre_22-3);}.cls-17{fill:url(#Degradado_sin_nombre_27-3);}.cls-18{letter-spacing:0.12em;}.cls-19{letter-spacing:0.45em;}.cls-20{letter-spacing:0.44em;}.cls-21{letter-spacing:0.46em;}.cls-22{fill:url(#Degradado_sin_nombre_22-4);}.cls-23{fill:url(#Degradado_sin_nombre_27-4);}.cls-24{fill:url(#Degradado_sin_nombre_23-2);}.cls-25{fill:url(#Degradado_sin_nombre_27-5);}.cls-26{fill:url(#Degradado_sin_nombre_22-5);}.cls-27{fill:url(#Degradado_sin_nombre_23-3);}.cls-28{fill:url(#Degradado_sin_nombre_23-4);}.cls-29{fill:url(#Degradado_sin_nombre_27-6);}.cls-30{fill:url(#Degradado_sin_nombre_23-5);}.cls-31{fill:url(#Degradado_sin_nombre_27-7);}.cls-32{fill:url(#Degradado_sin_nombre_23-6);}.cls-33{fill:url(#Degradado_sin_nombre_27-8);}.cls-34{fill:url(#Degradado_sin_nombre_23-7);}.cls-35{fill:url(#Degradado_sin_nombre_27-9);}.cls-36{fill:url(#Degradado_sin_nombre_27-10);}.cls-37{fill:url(#Degradado_sin_nombre_27-11);}.cls-38{fill:url(#Degradado_sin_nombre_27-12);}.cls-39{fill:url(#Degradado_sin_nombre_27-13);}.cls-40{fill:url(#Degradado_sin_nombre_27-14);}.cls-41{fill:url(#Degradado_sin_nombre_23-8);}.cls-42{fill:url(#Degradado_sin_nombre_27-15);}.cls-43{fill:url(#Degradado_sin_nombre_22-6);}.cls-44{fill:url(#Degradado_sin_nombre_27-16);}.cls-45{fill:url(#Degradado_sin_nombre_23-9);}.cls-46{fill:#3f244c;mix-blend-mode:multiply;opacity:0.2;}.cls-47{fill:url(#Degradado_sin_nombre_27-17);}.cls-48{fill:url(#Degradado_sin_nombre_23-10);}.cls-49{fill:url(#Degradado_sin_nombre_22-7);}.cls-50{fill:url(#Degradado_sin_nombre_23-11);}.cls-51{fill:url(#Degradado_sin_nombre_22-8);}.cls-52{letter-spacing:0.14em;}.cls-53{letter-spacing:0.14em;}.cls-54{letter-spacing:0.12em;}.cls-56{fill:url(#Degradado_sin_nombre_22-9);}.cls-57{fill:url(#Degradado_sin_nombre_22-10);}.cls-58{fill:url(#Degradado_sin_nombre_22-11);}.cls-59{fill:url(#Degradado_sin_nombre_22-12);}.cls-60{fill:url(#Degradado_sin_nombre_22-13);}.cls-61{fill:url(#Degradado_sin_nombre_22-14);}.cls-62{fill:url(#Degradado_sin_nombre_22-15);}.cls-63{fill:url(#Degradado_sin_nombre_22-16);}.cls-64{fill:url(#Degradado_sin_nombre_22-17);}.cls-65{fill:url(#Degradado_sin_nombre_23-12);}.cls-66{fill:url(#Degradado_sin_nombre_23-13);}.cls-67{fill:url(#Degradado_sin_nombre_23-14);}.cls-68{fill:url(#Degradado_sin_nombre_23-15);}.cls-69{fill:url(#Degradado_sin_nombre_23-16);}.cls-70{fill:url(#Degradado_sin_nombre_23-17);}.cls-71{fill:url(#Degradado_sin_nombre_23-18);}.cls-72{fill:url(#Degradado_sin_nombre_23-19);}.cls-73{fill:url(#Degradado_sin_nombre_23-20);}.cls-74{fill:url(#Degradado_sin_nombre_23-21);}.cls-75{fill:url(#Degradado_sin_nombre_22-18);}.cls-76{fill:url(#Degradado_sin_nombre_27-18);}.cls-77{fill:url(#Degradado_sin_nombre_30);}.cls-78{fill:url(#Degradado_sin_nombre_30-2);}</style><linearGradient id="Degradado_sin_nombre_23" x1="417.05" y1="73.91" x2="330.84" y2="73.91" gradientUnits="userSpaceOnUse"><stop offset="0" stop-color="#b63ae4"/><stop offset="1" stop-color="#23e0ff"/></linearGradient><linearGradient id="Degradado_sin_nombre_22" x1="319.57" y1="119.47" x2="430.43" y2="119.47" gradientUnits="userSpaceOnUse"><stop offset="0" stop-color="#eb5c43"/><stop offset="1" stop-color="#ffdc2c"/></linearGradient><linearGradient id="Degradado_sin_nombre_22-2" x1="428.93" y1="119.47" x2="347.9" y2="119.47" xlink:href="#Degradado_sin_nombre_22"/><linearGradient id="Degradado_sin_nombre_27" x1="414.57" y1="119" x2="382.04" y2="119" gradientUnits="userSpaceOnUse"><stop offset="0" stop-color="#ffe496" stop-opacity="0"/><stop offset="1" stop-color="#ffda0b"/></linearGradient><linearGradient id="Degradado_sin_nombre_27-2" x1="410.94" y1="119.47" x2="370.96" y2="119.47" xlink:href="#Degradado_sin_nombre_27"/><linearGradient id="Degradado_sin_nombre_22-3" x1="349.68" y1="109.65" x2="339.09" y2="127.18" gradientTransform="translate(184.91 -208.41) rotate(45)" xlink:href="#Degradado_sin_nombre_22"/><linearGradient id="Degradado_sin_nombre_27-3" x1="344.03" y1="126.48" x2="344.03" y2="114.12" xlink:href="#Degradado_sin_nombre_27"/><linearGradient id="Degradado_sin_nombre_22-4" x1="98.58" y1="105.45" x2="196.57" y2="105.45" xlink:href="#Degradado_sin_nombre_22"/><linearGradient id="Degradado_sin_nombre_27-4" x1="147.57" y1="145.49" x2="147.57" y2="63.32" xlink:href="#Degradado_sin_nombre_27"/><linearGradient id="Degradado_sin_nombre_23-2" x1="147.57" y1="138.45" x2="147.57" y2="70.93" xlink:href="#Degradado_sin_nombre_23"/><linearGradient id="Degradado_sin_nombre_27-5" x1="147.57" y1="78.9" x2="147.57" y2="111.2" xlink:href="#Degradado_sin_nombre_27"/><linearGradient id="Degradado_sin_nombre_22-5" x1="355.4" y1="349.41" x2="423.92" y2="349.41" xlink:href="#Degradado_sin_nombre_22"/><linearGradient id="Degradado_sin_nombre_23-3" x1="404.36" y1="349.06" x2="397.04" y2="349.06" xlink:href="#Degradado_sin_nombre_23"/><linearGradient id="Degradado_sin_nombre_23-4" x1="357.43" y1="332.37" x2="319" y2="332.37" xlink:href="#Degradado_sin_nombre_23"/><linearGradient id="Degradado_sin_nombre_27-6" x1="331.85" y1="332.37" x2="343.92" y2="332.37" xlink:href="#Degradado_sin_nombre_27"/><linearGradient id="Degradado_sin_nombre_23-5" x1="357.43" y1="348.7" x2="319" y2="348.7" xlink:href="#Degradado_sin_nombre_23"/><linearGradient id="Degradado_sin_nombre_27-7" x1="320.59" y1="348.7" x2="334.13" y2="348.7" xlink:href="#Degradado_sin_nombre_27"/><linearGradient id="Degradado_sin_nombre_23-6" x1="357.43" y1="364.9" x2="319" y2="364.9" xlink:href="#Degradado_sin_nombre_23"/><linearGradient id="Degradado_sin_nombre_27-8" x1="344.27" y1="364.9" x2="352.5" y2="364.9" xlink:href="#Degradado_sin_nombre_27"/><linearGradient id="Degradado_sin_nombre_23-7" x1="370.47" y1="349.06" x2="355.17" y2="349.06" xlink:href="#Degradado_sin_nombre_23"/><linearGradient id="Degradado_sin_nombre_27-9" x1="370.22" y1="389.43" x2="370.22" y2="311.63" xlink:href="#Degradado_sin_nombre_27"/><linearGradient id="Degradado_sin_nombre_27-10" x1="373.13" y1="389.43" x2="373.13" y2="311.63" xlink:href="#Degradado_sin_nombre_27"/><linearGradient id="Degradado_sin_nombre_27-11" x1="398.8" y1="311.48" x2="398.8" y2="302.25" xlink:href="#Degradado_sin_nombre_27"/><linearGradient id="Degradado_sin_nombre_27-12" x1="381.91" y1="311.48" x2="381.91" y2="302.25" xlink:href="#Degradado_sin_nombre_27"/><linearGradient id="Degradado_sin_nombre_27-13" x1="398.78" y1="397.15" x2="398.78" y2="387.92" gradientTransform="matrix(1, 0, 0, -1, 0, 784.51)" xlink:href="#Degradado_sin_nombre_27"/><linearGradient id="Degradado_sin_nombre_27-14" x1="381.9" y1="397.15" x2="381.9" y2="387.92" gradientTransform="matrix(1, 0, 0, -1, 0, 784.51)" xlink:href="#Degradado_sin_nombre_27"/><linearGradient id="Degradado_sin_nombre_23-8" x1="610.18" y1="62.67" x2="584" y2="150.63" xlink:href="#Degradado_sin_nombre_23"/><linearGradient id="Degradado_sin_nombre_27-15" x1="679.47" y1="22.79" x2="619.93" y2="83.37" xlink:href="#Degradado_sin_nombre_27"/><linearGradient id="Degradado_sin_nombre_22-6" x1="608.1" y1="69.65" x2="586.08" y2="143.64" xlink:href="#Degradado_sin_nombre_22"/><linearGradient id="Degradado_sin_nombre_27-16" x1="606.46" y1="75.16" x2="587.72" y2="138.11" xlink:href="#Degradado_sin_nombre_27"/><linearGradient id="Degradado_sin_nombre_23-9" x1="604.51" y1="81.73" x2="589.68" y2="131.54" xlink:href="#Degradado_sin_nombre_23"/><linearGradient id="Degradado_sin_nombre_27-17" x1="598.08" y1="74.92" x2="598.08" y2="89.88" xlink:href="#Degradado_sin_nombre_27"/><linearGradient id="Degradado_sin_nombre_23-10" x1="549.78" y1="164.12" x2="549.78" y2="145.1" gradientTransform="translate(270.38 -343.46) rotate(45)" xlink:href="#Degradado_sin_nombre_23"/><linearGradient id="Degradado_sin_nombre_22-7" x1="549.78" y1="159.8" x2="549.78" y2="149.45" xlink:href="#Degradado_sin_nombre_22"/><linearGradient id="Degradado_sin_nombre_23-11" x1="645.16" y1="68.74" x2="645.16" y2="49.73" xlink:href="#Degradado_sin_nombre_23"/><linearGradient id="Degradado_sin_nombre_22-8" x1="645.16" y1="64.43" x2="645.16" y2="54.08" xlink:href="#Degradado_sin_nombre_22"/><linearGradient id="Degradado_sin_nombre_22-9" x1="97.03" y1="345.7" x2="199.36" y2="345.7" xlink:href="#Degradado_sin_nombre_22"/><linearGradient id="Degradado_sin_nombre_22-10" x1="131.4" y1="363.38" x2="131.4" y2="326.26" xlink:href="#Degradado_sin_nombre_22"/><linearGradient id="Degradado_sin_nombre_22-11" x1="131.4" y1="352.36" x2="131.4" y2="343.23" xlink:href="#Degradado_sin_nombre_22"/><linearGradient id="Degradado_sin_nombre_22-12" x1="142.67" y1="372.67" x2="142.67" y2="315.85" xlink:href="#Degradado_sin_nombre_22"/><linearGradient id="Degradado_sin_nombre_22-13" x1="142.67" y1="354.83" x2="142.67" y2="326.92" xlink:href="#Degradado_sin_nombre_22"/><linearGradient id="Degradado_sin_nombre_22-14" x1="153.72" y1="378.17" x2="153.72" y2="337.72" xlink:href="#Degradado_sin_nombre_22"/><linearGradient id="Degradado_sin_nombre_22-15" x1="153.72" y1="350.58" x2="153.72" y2="335.87" xlink:href="#Degradado_sin_nombre_22"/><linearGradient id="Degradado_sin_nombre_22-16" x1="164.99" y1="356.79" x2="164.99" y2="322.58" xlink:href="#Degradado_sin_nombre_22"/><linearGradient id="Degradado_sin_nombre_22-17" x1="164.99" y1="354.96" x2="164.99" y2="333.7" xlink:href="#Degradado_sin_nombre_22"/><linearGradient id="Degradado_sin_nombre_23-12" x1="131.4" y1="359.67" x2="131.4" y2="351.97" xlink:href="#Degradado_sin_nombre_23"/><linearGradient id="Degradado_sin_nombre_23-13" x1="142.67" y1="359.23" x2="142.67" y2="353.42" xlink:href="#Degradado_sin_nombre_23"/><linearGradient id="Degradado_sin_nombre_23-14" x1="153.72" y1="367.21" x2="153.72" y2="349.94" xlink:href="#Degradado_sin_nombre_23"/><linearGradient id="Degradado_sin_nombre_23-15" x1="164.99" y1="358.36" x2="164.99" y2="353.68" xlink:href="#Degradado_sin_nombre_23"/><linearGradient id="Degradado_sin_nombre_23-16" x1="118" y1="345.7" x2="105.53" y2="345.7" xlink:href="#Degradado_sin_nombre_23"/><linearGradient id="Degradado_sin_nombre_23-17" x1="118" y1="345.7" x2="105.53" y2="345.7" gradientTransform="translate(-211.88 179.87) rotate(-45)" xlink:href="#Degradado_sin_nombre_23"/><linearGradient id="Degradado_sin_nombre_23-18" x1="178.36" y1="345.7" x2="188.84" y2="345.7" xlink:href="#Degradado_sin_nombre_23"/><linearGradient id="Degradado_sin_nombre_23-19" x1="178.36" y1="345.7" x2="188.84" y2="345.7" gradientTransform="translate(-190.21 232.17) rotate(-45)" xlink:href="#Degradado_sin_nombre_23"/><linearGradient id="Degradado_sin_nombre_23-20" x1="599.2" y1="344.66" x2="524.69" y2="344.66" xlink:href="#Degradado_sin_nombre_23"/><linearGradient id="Degradado_sin_nombre_23-21" x1="595.61" y1="389.3" x2="595.61" y2="325.71" xlink:href="#Degradado_sin_nombre_23"/><linearGradient id="Degradado_sin_nombre_22-18" x1="595.61" y1="390.29" x2="595.61" y2="304.49" xlink:href="#Degradado_sin_nombre_22"/><linearGradient id="Degradado_sin_nombre_27-18" x1="595.61" y1="384.35" x2="595.61" y2="309.73" xlink:href="#Degradado_sin_nombre_27"/><linearGradient id="Degradado_sin_nombre_30" x1="595.61" y1="370.79" x2="595.61" y2="321.66" gradientUnits="userSpaceOnUse"><stop offset="0" stop-color="#ffe496" stop-opacity="0"/><stop offset="1" stop-color="#fffc00"/></linearGradient><linearGradient id="Degradado_sin_nombre_30-2" x1="595.61" y1="347.08" x2="595.61" y2="363.36" xlink:href="#Degradado_sin_nombre_30"/></defs><g class="cls-1"><g id="BACKGROUND"><rect class="cls-2" width="750" height="500"/></g><g id="OBJECTS"><text class="cls-3" transform="translate(323.01 191.39)">N<tspan class="cls-4" x="16.16" y="0">E</tspan><tspan x="29.18" y="0">W</tspan><tspan class="cls-5" x="49.1" y="0">C</tspan><tspan class="cls-6" x="63.28" y="0">OIN</tspan></text><text class="cls-7" transform="translate(350.06 205.69)">W<tspan class="cls-8" x="9.99" y="0">ALL</tspan><tspan class="cls-9" x="33.48" y="0">E</tspan><tspan class="cls-8" x="41.22" y="0">T</tspan></text><path class="cls-10" d="M430.33,76.23v3a11.34,11.34,0,0,0-6.07-1.82H325.74a11.43,11.43,0,0,0-6.07,1.82v-3a10.51,10.51,0,0,1,10.52-10.51h89.63A10.51,10.51,0,0,1,430.33,76.23Z"/><path class="cls-11" d="M424.26,77.05v.34H325.74v-.34a6.62,6.62,0,0,1,6.62-6.62h85.28A6.62,6.62,0,0,1,424.26,77.05Z"/><path class="cls-12" d="M430.43,91.51v55.92a10.51,10.51,0,0,1-10.51,10.51H330.09a10.51,10.51,0,0,1-10.52-10.51V91.51A10.51,10.51,0,0,1,330.09,81h89.83A10.51,10.51,0,0,1,430.43,91.51Z"/><path class="cls-13" d="M430.43,91.51v55.92a10.51,10.51,0,0,1-10.51,10.51H363A61.51,61.51,0,0,1,362.28,81h57.64A10.51,10.51,0,0,1,430.43,91.51Z"/><path class="cls-14" d="M430.43,93.47v51.06a32.29,32.29,0,1,1,0-51.06Z"/><path class="cls-15" d="M430.43,91.51v55.92a10.51,10.51,0,0,1-10.51,10.51H389.74A44.2,44.2,0,0,1,388.08,81h31.84A10.51,10.51,0,0,1,430.43,91.51Z"/><path class="cls-10" d="M416.17,122.92a6.79,6.79,0,0,0-4.07,1.38l-3.92-4.3,1.91-6.13a6.62,6.62,0,0,0,1.41.15,6.8,6.8,0,1,0-2.62-.53L407,119.61l-6,1.29a6.7,6.7,0,1,0,.34,2,6.65,6.65,0,0,0-.08-.78l6.06-1.29,3.92,4.31a6.72,6.72,0,0,0-1.78,4.55,6.79,6.79,0,1,0,6.79-6.79Z"/><path class="cls-10" d="M319.57,102h31a9.72,9.72,0,0,1,9.72,9.72v14.63a9.72,9.72,0,0,1-9.72,9.72h-31a0,0,0,0,1,0,0V102A0,0,0,0,1,319.57,102Z"/><circle class="cls-16" cx="344.03" cy="119" r="10.18" transform="translate(16.62 278.12) rotate(-45)"/><circle class="cls-17" cx="344.03" cy="119" r="7.2"/><text class="cls-3" transform="translate(106.08 190.39)">BI<tspan class="cls-18" x="21.62" y="0">T</tspan><tspan class="cls-5" x="34.02" y="0">C</tspan><tspan x="48.2" y="0">OIN</tspan></text><text class="cls-19" transform="translate(98.91 205.69)">A<tspan class="cls-20" x="8.46" y="0">C</tspan><tspan class="cls-21" x="16.61" y="0">CEPTED HERE</tspan></text><path class="cls-22" d="M196.57,106a49,49,0,0,0-39.06-48V47.62h-7.85v9.43c-.7,0-1.39,0-2.09,0s-1.39,0-2.08,0V47.62h-7.85V58a49,49,0,0,0,0,96v9.29h7.85v-8.34c.69,0,1.38.06,2.08.06s1.39,0,2.09-.06v8.34h7.85V154A49,49,0,0,0,196.57,106Z"/><path class="cls-23" d="M193.28,106a45.69,45.69,0,1,1-4.22-19.2A45.7,45.7,0,0,1,193.28,106Z"/><circle class="cls-10" cx="147.57" cy="105.99" r="43.17"/><path class="cls-24" d="M185.13,106a37.54,37.54,0,1,1-3.47-15.78A37.55,37.55,0,0,1,185.13,106Z"/><path class="cls-10" d="M147.57,139.83A33.88,33.88,0,0,1,113.73,106a33.44,33.44,0,0,1,3.13-14.22,33.84,33.84,0,0,1,61.42,0A33.44,33.44,0,0,1,181.41,106,33.88,33.88,0,0,1,147.57,139.83Zm0-66.68a33,33,0,0,0-29.81,19,32.85,32.85,0,1,0,59.61,0A33,33,0,0,0,147.57,73.15Z"/><ellipse class="cls-25" cx="147.57" cy="90.21" rx="34.09" ry="21.78"/><path class="cls-10" d="M161.13,107.92a6.41,6.41,0,0,0-1.67-1.57,1.43,1.43,0,0,1-.11-2.32,6.51,6.51,0,0,0,1.28-1.44,8,8,0,0,0,1.2-4.47,7.94,7.94,0,0,0-3.39-6.92,12.12,12.12,0,0,0-4.31-1.82A1.42,1.42,0,0,1,153,88v-.88a1.43,1.43,0,0,0-1.42-1.42h-1.45a1.43,1.43,0,0,0-1.43,1.42v1.7h-1.42a1.43,1.43,0,0,1-1.43-1.42v-.27a1.43,1.43,0,0,0-1.42-1.42H143a1.43,1.43,0,0,0-1.43,1.42v.27a1.43,1.43,0,0,1-1.42,1.42h-5.26a1.43,1.43,0,0,0-1.43,1.43v2.34A1.43,1.43,0,0,0,134.91,94H135a1.43,1.43,0,0,1,1.43,1.43v20.5a1.43,1.43,0,0,1-1.43,1.42h-.08a1.43,1.43,0,0,0-1.43,1.43v2.34a1.43,1.43,0,0,0,1.43,1.42h5.26a1.43,1.43,0,0,1,1.42,1.43v.56A1.43,1.43,0,0,0,143,126h1.45a1.43,1.43,0,0,0,1.42-1.43V124a1.43,1.43,0,0,1,1.43-1.43h0a1.43,1.43,0,0,1,1.42,1.43v.56a1.43,1.43,0,0,0,1.43,1.43h1.45a1.43,1.43,0,0,0,1.42-1.43v-1a1.42,1.42,0,0,1,1.15-1.4,11.54,11.54,0,0,0,5.22-2.18q3.14-2.49,3.14-7.44A7.51,7.51,0,0,0,161.13,107.92ZM144.55,96.49A1.42,1.42,0,0,1,146,95.07h2.56a6.56,6.56,0,0,1,4,.94,3.61,3.61,0,0,1,1.23,3.07,3.5,3.5,0,0,1-1.13,2.82,6,6,0,0,1-3.8,1H146a1.43,1.43,0,0,1-1.42-1.42Zm8.71,18.79a5.09,5.09,0,0,1-3.38,1H146a1.43,1.43,0,0,1-1.42-1.43v-5.23A1.43,1.43,0,0,1,146,108.2h4.28q4.19,0,4.19,4.24A3.52,3.52,0,0,1,153.26,115.28Z"/><text class="cls-3" transform="translate(330.55 424.7)">BI<tspan class="cls-18" x="21.62" y="0">T</tspan><tspan class="cls-5" x="34.02" y="0">C</tspan><tspan x="48.2" y="0">OIN</tspan></text><text class="cls-19" transform="translate(323.76 441.06)">A<tspan class="cls-20" x="8.46" y="0">C</tspan><tspan class="cls-21" x="16.61" y="0">CEPTED HERE</tspan></text><path class="cls-26" d="M420.59,354.35l-.07-.09a16.64,16.64,0,0,0-9.26-6,.08.08,0,0,1,0-.15l.14-.06a16.46,16.46,0,0,0,8-6.3,18.93,18.93,0,0,0,2.84-10.54q0-10.38-7.53-16l-.47-.35a31,31,0,0,0-12.71-4.8V302a0,0,0,0,0,0,0H391.38v7.34h-6.72V302s0,0,0,0H374.53a0,0,0,0,0,0,0v7.32H355.4v12.23h6.92v55H355.4v12.23h19.12v8.05h10.14v-8.05h6.72v8.05h10.14v-8.48a33.27,33.27,0,0,0,11.93-3.53,21.43,21.43,0,0,0,3.07-2q7.41-5.86,7.4-17.56A17.8,17.8,0,0,0,420.59,354.35Zm-39.1-30.3h9.39q6.45,0,9.34,2.22t2.9,7.26c0,2.92-.9,5.13-2.68,6.63s-4.77,2.26-9,2.3h-10ZM402,371.69c-1.85,1.58-4.51,2.38-8,2.38H381.49V355h13.43q9.88,0,9.89,10A8.31,8.31,0,0,1,402,371.69Z"/><path class="cls-27" d="M400.22,326.26q-2.89-2.22-9.34-2.22h-3.57q6.45,0,9.34,2.22t2.9,7.26c0,2.92-.9,5.13-2.68,6.63s-4.77,2.26-9,2.3h3.57q6.28-.06,9-2.3c1.78-1.5,2.68-3.71,2.68-6.63Q403.12,328.48,400.22,326.26ZM394.92,355h-3.57q9.88,0,9.89,10a8.31,8.31,0,0,1-2.79,6.69c-1.85,1.58-4.51,2.38-8,2.38h3.57c3.46,0,6.12-.8,8-2.38a8.31,8.31,0,0,0,2.79-6.69Q404.81,355.06,394.92,355Z"/><rect class="cls-28" x="334.13" y="328.13" width="23.6" height="8.5"/><rect class="cls-29" x="334.13" y="328.13" width="7.66" height="8.5"/><rect class="cls-30" x="320.59" y="344.45" width="37.14" height="8.5"/><rect class="cls-31" x="320.59" y="344.45" width="13.53" height="8.5"/><polygon class="cls-32" points="345.93 369.03 357.73 369.27 357.73 360.77 345.93 360.53 345.93 369.03"/><polygon class="cls-33" points="345.93 369.03 351.83 369.27 351.83 360.77 345.93 360.53 345.93 369.03"/><polygon class="cls-34" points="365.92 309.3 365.92 388.81 355.4 388.81 355.4 376.58 355.41 376.57 362.32 376.57 362.32 321.53 355.4 321.53 355.4 309.3 365.92 309.3"/><rect class="cls-35" x="365.92" y="309.29" width="8.6" height="79.52"/><rect class="cls-36" x="371.75" y="309.29" width="2.77" height="79.52"/><rect class="cls-37" x="396.07" y="301.97" width="5.45" height="9.43"/><rect class="cls-38" x="379.19" y="301.97" width="5.45" height="9.43"/><rect class="cls-39" x="396.05" y="387.43" width="5.45" height="9.43"/><rect class="cls-40" x="379.17" y="387.43" width="5.45" height="9.43"/><path class="cls-10" d="M624.79,173V173S624.7,173,624.79,173Z"/><text class="cls-3" transform="translate(553.61 190.39)">BI<tspan class="cls-18" x="21.62" y="0">T</tspan><tspan class="cls-5" x="34.02" y="0">C</tspan><tspan x="48.2" y="0">OIN</tspan></text><text class="cls-19" transform="translate(546.43 205.69)">A<tspan class="cls-20" x="8.46" y="0">C</tspan><tspan class="cls-21" x="16.61" y="0">CEPTED HERE</tspan></text><circle class="cls-41" cx="597.1" cy="106.6" r="51.68"/><path class="cls-42" d="M597.1,154.65H597v-1.06h.15a46.63,46.63,0,0,0,6.16-.4l.14,1.05A48.89,48.89,0,0,1,597.1,154.65Zm-8.72-.79a50.06,50.06,0,0,1-6.27-1.59l.33-1a46.26,46.26,0,0,0,6.13,1.56Zm23.42-1.5-.32-1a47.21,47.21,0,0,0,5.87-2.34l.46.95A47.88,47.88,0,0,1,611.8,152.36Zm-37.59-3.5a49.27,49.27,0,0,1-5.46-3.46l.63-.85a47,47,0,0,0,5.33,3.38Zm51-3.28-.61-.86a46.89,46.89,0,0,0,4.86-4l.73.77A48.06,48.06,0,0,1,625.21,145.58Zm-62.92-5.86a47.83,47.83,0,0,1-4.14-5l.86-.62a48,48,0,0,0,4,4.86ZM635.88,135l-.85-.63a47,47,0,0,0,3.38-5.33l.93.5A49.27,49.27,0,0,1,635.88,135Zm-82.13-7.64a47.88,47.88,0,0,1-2.39-6l1-.32a47.21,47.21,0,0,0,2.34,5.87Zm89-5.72-1-.33a47.3,47.3,0,0,0,1.56-6.12l1,.19A47.86,47.86,0,0,1,642.76,121.63Zm-93.29-8.69a47.88,47.88,0,0,1-.42-6.34l1.06-.11v.11a47.46,47.46,0,0,0,.4,6.2Zm95.69-6.14H644.1v-.21a47.28,47.28,0,0,0-.42-6.3l1.05-.14a49.44,49.44,0,0,1,.43,6.45Zm-94.29-8.69-1-.19a48.23,48.23,0,0,1,1.59-6.26l1,.32A47.83,47.83,0,0,0,550.87,98.11Zm91-6a45.82,45.82,0,0,0-2.36-5.87l.95-.46a46.38,46.38,0,0,1,2.41,6Zm-86.07-7.83-.93-.5a46.9,46.9,0,0,1,3.45-5.46l.85.62A47,47,0,0,0,555.75,84.25ZM635.14,79a48,48,0,0,0-4-4.85l.76-.73a48.79,48.79,0,0,1,4.14,5Zm-70.46-6.4-.73-.77a47.83,47.83,0,0,1,5-4.13l.62.85A46.87,46.87,0,0,0,564.68,72.58Zm60.07-4a49.42,49.42,0,0,0-5.34-3.37l.5-.92a49.1,49.1,0,0,1,5.46,3.44Zm-48-4.37-.45-.95a47.2,47.2,0,0,1,6-2.4l.32,1A47.9,47.9,0,0,0,576.76,64.21Zm34.91-2.31a46.23,46.23,0,0,0-6.13-1.55l.19-1A48.75,48.75,0,0,1,612,60.89ZM590.85,60l-.14-1a48.64,48.64,0,0,1,6.39-.42l0,1.06h0A46.53,46.53,0,0,0,590.85,60Z"/><circle class="cls-43" cx="597.1" cy="106.6" r="43.46"/><circle class="cls-44" cx="597.1" cy="106.6" r="36.98"/><path class="cls-45" d="M626.37,106.59c0,.51,0,1,0,1.5v.13a29.27,29.27,0,0,1-58.45,0v-.13c0-.49,0-1,0-1.5a29.27,29.27,0,0,1,58.53,0Z"/><path class="cls-46" d="M626.37,106.59c0,.51,0,1,0,1.5a29.27,29.27,0,0,0-58.45,0c0-.49,0-1,0-1.5a29.27,29.27,0,0,1,58.53,0Z"/><path class="cls-47" d="M611.41,108.29a6.84,6.84,0,0,0-3.2-2.34c-.43-.16-.44-.48,0-.68a6.75,6.75,0,0,0,2.72-2.39,8.94,8.94,0,0,0-2.22-11.58,13.31,13.31,0,0,0-5.48-2.07V85.72h-4.37v3.16h-2.89V85.72h-4.37v3.16h-8.24v5.27h3v23.72h-3v5.27h8.24v3.47h4.37v-3.47h2.89v3.47h4.37V123a12.8,12.8,0,0,0,6.47-2.4c2.12-1.68,3.19-4.2,3.19-7.56A7.67,7.67,0,0,0,611.41,108.29ZM593.89,95.23h4a6.67,6.67,0,0,1,4,1,3.68,3.68,0,0,1,1.25,3.12,3.53,3.53,0,0,1-1.16,2.86,6,6,0,0,1-3.86,1h-4.3Zm8.84,20.53a5.09,5.09,0,0,1-3.43,1h-5.41v-8.22h5.79q4.25,0,4.25,4.31A3.57,3.57,0,0,1,602.73,115.76Z"/><circle class="cls-48" cx="549.78" cy="154.65" r="10.34" transform="translate(51.67 434.05) rotate(-45)"/><path class="cls-49" d="M555.41,154.65a5.63,5.63,0,1,0-5.63,5.63A5.63,5.63,0,0,0,555.41,154.65Z"/><circle class="cls-50" cx="645.16" cy="59.27" r="10.34"/><circle class="cls-51" cx="645.16" cy="59.27" r="5.63"/><text class="cls-3" transform="translate(108.22 424.7)">C<tspan class="cls-52" x="14.6" y="0">R</tspan><tspan class="cls-53" x="28.14" y="0">Y</tspan><tspan x="41.82" y="0">P</tspan><tspan class="cls-54" x="55.46" y="0">T</tspan><tspan x="67.86" y="0">O</tspan></text><text class="cls-55" transform="translate(125.4 441.06)">MINING</text><circle class="cls-56" cx="148.19" cy="345.7" r="51.17"/><circle class="cls-10" cx="148.19" cy="345.7" r="46.29"/><rect class="cls-57" x="131.01" y="322.67" width="0.77" height="41.47"/><rect class="cls-58" x="128.27" y="342.25" width="6.26" height="18.02"/><rect class="cls-59" x="142.28" y="310.37" width="0.77" height="63.47"/><rect class="cls-60" x="139.54" y="324.22" width="6.26" height="31.17"/><rect class="cls-61" x="153.34" y="333.81" width="0.77" height="45.19"/><rect class="cls-62" x="150.59" y="334.83" width="6.26" height="32.88"/><rect class="cls-63" x="164.61" y="319.28" width="0.77" height="38.21"/><rect class="cls-64" x="161.87" y="331.65" width="6.26" height="23.75"/><rect class="cls-65" x="128.27" y="351.26" width="6.26" height="9.01"/><rect class="cls-66" x="139.54" y="352.59" width="6.26" height="2.81"/><rect class="cls-67" x="150.59" y="348.88" width="6.26" height="18.82"/><rect class="cls-68" x="161.87" y="352.59" width="6.26" height="2.81"/><path class="cls-69" d="M123.73,374.78a38,38,0,0,1,0-58.17l.64.76a37,37,0,0,0,0,56.65Z"/><rect class="cls-70" x="106" y="340.51" width="10.38" height="10.38" transform="translate(277.01 22.63) rotate(45)"/><path class="cls-71" d="M172.14,375.21l-.63-.78a37,37,0,0,0,0-57.47l.63-.78a38,38,0,0,1,0,59Z"/><rect class="cls-72" x="179.96" y="340.51" width="10.38" height="10.38" transform="translate(298.67 -29.67) rotate(45)"/><text class="cls-3" transform="translate(555.75 424.7)">C<tspan class="cls-52" x="14.6" y="0">R</tspan><tspan class="cls-53" x="28.14" y="0">Y</tspan><tspan x="41.82" y="0">P</tspan><tspan class="cls-54" x="55.46" y="0">T</tspan><tspan x="67.86" y="0">O</tspan></text><text class="cls-55" transform="translate(572.92 441.06)">MINING</text><circle class="cls-73" cx="595.61" cy="344.66" r="52.2"/><circle class="cls-74" cx="595.61" cy="344.66" r="46.69"/><circle class="cls-75" cx="595.61" cy="344.66" r="43.62"/><circle class="cls-76" cx="595.61" cy="344.66" r="37.94"/><circle class="cls-77" cx="595.61" cy="344.66" r="24.97"/><circle class="cls-78" cx="595.61" cy="344.66" r="17.49"/><path class="cls-10" d="M605.36,369.43h0a2.39,2.39,0,0,1-3.35-.36l-31.94-39.68a2.36,2.36,0,0,1,.36-3.34h0a2.37,2.37,0,0,1,3.34.36l32,39.67A2.39,2.39,0,0,1,605.36,369.43Z"/><path class="cls-10" d="M571.86,343.93s0-13.49,18.89-24.21c-19.85,3-26.64,20.54-26.64,20.54Z"/><path class="cls-10" d="M585.87,369.43h0a2.38,2.38,0,0,0,3.34-.36l31.95-39.68a2.37,2.37,0,0,0-.36-3.34h0a2.37,2.37,0,0,0-3.34.36l-32,39.67A2.39,2.39,0,0,0,585.87,369.43Z"/><path class="cls-10" d="M619.37,343.93s0-13.49-18.89-24.21c19.85,3,26.64,20.54,26.64,20.54Z"/><path class="cls-10" d="M595.61,316.8l-8.19,13.58L595.61,344l8.2-13.58Zm-6.78,13.58,6.78-3.21,6.79,3.21-6.79,3.2Z"/><path class="cls-10" d="M595.61,386.41h-.13a.5.5,0,0,1,0-1h.13c1.3,0,2.6-.06,3.87-.18a.5.5,0,0,1,.09,1C598.27,386.35,596.94,386.41,595.61,386.41Zm-4.17-.21h-.05c-1.36-.14-2.72-.34-4-.61a.5.5,0,1,1,.19-1c1.3.26,2.63.46,4,.6a.5.5,0,0,1,0,1Zm12.09-.55a.49.49,0,0,1-.49-.4.5.5,0,0,1,.39-.59,38.52,38.52,0,0,0,3.88-1,.5.5,0,1,1,.29,1c-1.3.39-2.64.72-4,1Zm-20-1-.15,0c-1.3-.4-2.59-.87-3.85-1.39a.5.5,0,0,1,.39-.93,38.29,38.29,0,0,0,3.76,1.36.51.51,0,0,1,.33.63A.51.51,0,0,1,583.52,384.61Zm27.75-1.28a.49.49,0,0,1-.46-.31.5.5,0,0,1,.27-.65,39.78,39.78,0,0,0,3.62-1.7.5.5,0,0,1,.47.89c-1.2.63-2.45,1.22-3.71,1.74A.58.58,0,0,1,611.27,383.33Zm-35.21-1.84a.46.46,0,0,1-.23-.06c-1.19-.64-2.37-1.35-3.51-2.11a.5.5,0,0,1-.13-.7.49.49,0,0,1,.69-.13c1.11.74,2.26,1.44,3.42,2.06a.5.5,0,0,1,.21.68A.52.52,0,0,1,576.06,381.49Zm42.35-1.95a.52.52,0,0,1-.42-.22.5.5,0,0,1,.14-.69c1.11-.74,2.19-1.54,3.22-2.38a.51.51,0,0,1,.71.08.5.5,0,0,1-.08.7c-1.05.86-2.16,1.68-3.29,2.43A.48.48,0,0,1,618.41,379.54Zm-49-2.56a.49.49,0,0,1-.32-.12c-1-.86-2.06-1.79-3-2.75a.5.5,0,0,1,0-.71.48.48,0,0,1,.7,0c.94.94,1.94,1.85,3,2.69a.5.5,0,0,1-.32.89Zm55.31-2.55a.49.49,0,0,1-.35-.14.51.51,0,0,1,0-.71c.95-.94,1.85-1.93,2.7-2.95a.5.5,0,1,1,.77.64c-.87,1-1.8,2.06-2.76,3A.5.5,0,0,1,624.67,374.43Zm-61-3.18a.5.5,0,0,1-.39-.18c-.86-1.06-1.68-2.17-2.43-3.3a.5.5,0,0,1,.14-.69.49.49,0,0,1,.69.14,38.57,38.57,0,0,0,2.38,3.21.52.52,0,0,1-.07.71A.56.56,0,0,1,563.66,371.25Zm66.17-3a.47.47,0,0,1-.28-.09.5.5,0,0,1-.14-.69,38.88,38.88,0,0,0,2.07-3.42.51.51,0,0,1,.68-.2.48.48,0,0,1,.2.67,38,38,0,0,1-2.12,3.51A.49.49,0,0,1,629.83,368.21Zm-70.65-3.69a.51.51,0,0,1-.44-.26c-.64-1.2-1.23-2.45-1.75-3.71a.5.5,0,0,1,.28-.65.49.49,0,0,1,.65.27,39.78,39.78,0,0,0,1.7,3.62.49.49,0,0,1-.2.67A.53.53,0,0,1,559.18,364.52Zm74.49-3.42a.65.65,0,0,1-.19,0,.5.5,0,0,1-.27-.66c.51-1.22,1-2.48,1.36-3.75a.49.49,0,0,1,.63-.33.5.5,0,0,1,.33.62,40.2,40.2,0,0,1-1.4,3.85A.5.5,0,0,1,633.67,361.1Zm-77.57-4.05a.51.51,0,0,1-.48-.36c-.39-1.3-.72-2.64-1-4a.49.49,0,0,1,.4-.58.48.48,0,0,1,.58.39c.26,1.31.58,2.61,1,3.88a.51.51,0,0,1-.33.63Zm79.95-3.68H636a.49.49,0,0,1-.39-.59,39.56,39.56,0,0,0,.59-3.95.5.5,0,0,1,.55-.44.49.49,0,0,1,.45.54c-.14,1.36-.35,2.72-.61,4.05A.5.5,0,0,1,636.05,353.37Zm-81.5-4.25a.52.52,0,0,1-.5-.46c-.12-1.32-.19-2.67-.19-4a.54.54,0,0,1,.5-.54.46.46,0,0,1,.5.45v.1c0,1.29.07,2.61.19,3.9a.5.5,0,0,1-.45.54Zm82.31-3.79a.5.5,0,0,1-.5-.5v-.17c0-1.33-.06-2.68-.19-4a.5.5,0,0,1,.45-.55.51.51,0,0,1,.55.45c.13,1.35.19,2.72.19,4.09v.17A.5.5,0,0,1,636.86,345.33ZM554.57,341h-.05a.49.49,0,0,1-.45-.54c.13-1.36.34-2.72.6-4.05a.51.51,0,0,1,.59-.4.5.5,0,0,1,.39.59c-.25,1.3-.45,2.63-.58,4A.52.52,0,0,1,554.57,341Zm81.51-3.92a.5.5,0,0,1-.49-.41,39.8,39.8,0,0,0-1-3.87.5.5,0,0,1,.34-.63.5.5,0,0,1,.62.34c.39,1.3.73,2.64,1,4a.51.51,0,0,1-.39.59Zm-79.93-4-.14,0a.5.5,0,0,1-.34-.63c.4-1.3.87-2.59,1.39-3.85a.51.51,0,0,1,.65-.27.5.5,0,0,1,.27.66c-.51,1.22-1,2.49-1.35,3.76A.5.5,0,0,1,556.15,333.11Zm77.59-3.73a.48.48,0,0,1-.46-.31c-.51-1.22-1.09-2.44-1.71-3.61a.5.5,0,1,1,.88-.47c.64,1.2,1.23,2.44,1.75,3.7a.49.49,0,0,1-.27.65A.43.43,0,0,1,633.74,329.38Zm-74.48-3.73a.53.53,0,0,1-.24-.06.5.5,0,0,1-.2-.68c.64-1.19,1.36-2.37,2.11-3.5a.5.5,0,0,1,.7-.14.49.49,0,0,1,.13.69c-.74,1.11-1.43,2.26-2.06,3.43A.51.51,0,0,1,559.26,325.65Zm70.66-3.39a.49.49,0,0,1-.41-.23c-.74-1.1-1.54-2.18-2.38-3.21a.49.49,0,0,1,.07-.7.5.5,0,0,1,.7.07,40.53,40.53,0,0,1,2.44,3.29.5.5,0,0,1-.14.69A.47.47,0,0,1,629.92,322.26Zm-66.15-3.32a.54.54,0,0,1-.32-.11.52.52,0,0,1-.07-.71c.87-1.05,1.8-2.07,2.76-3a.5.5,0,0,1,.7,0,.5.5,0,0,1,0,.71c-.94.94-1.84,1.93-2.69,3A.48.48,0,0,1,563.77,318.94Zm61-2.93a.51.51,0,0,1-.36-.15c-.94-.94-1.93-1.84-3-2.69a.5.5,0,1,1,.64-.77c1,.86,2.07,1.79,3,2.75a.51.51,0,0,1,0,.71A.5.5,0,0,1,624.8,316Zm-55.31-2.78a.48.48,0,0,1-.38-.18.49.49,0,0,1,.07-.7c1.05-.86,2.15-1.68,3.29-2.44a.5.5,0,0,1,.55.83c-1.1.74-2.18,1.54-3.21,2.38A.48.48,0,0,1,569.49,313.23Zm49.06-2.36a.53.53,0,0,1-.27-.08,39.92,39.92,0,0,0-3.43-2.06.5.5,0,0,1-.2-.68.49.49,0,0,1,.67-.2,40.27,40.27,0,0,1,3.51,2.11.5.5,0,0,1,.14.69A.52.52,0,0,1,618.55,310.87Zm-42.33-2.12a.51.51,0,0,1-.45-.27.5.5,0,0,1,.21-.67c1.2-.64,2.45-1.23,3.7-1.75a.5.5,0,0,1,.66.27.51.51,0,0,1-.27.65,39.86,39.86,0,0,0-3.62,1.71A.46.46,0,0,1,576.22,308.75Zm35.21-1.7a.43.43,0,0,1-.19,0,39.11,39.11,0,0,0-3.76-1.34.5.5,0,1,1,.29-1,40.07,40.07,0,0,1,3.85,1.38.5.5,0,0,1,.27.66A.49.49,0,0,1,611.43,307.05Zm-27.74-1.39a.5.5,0,0,1-.48-.35.51.51,0,0,1,.33-.63c1.3-.39,2.64-.72,4-1a.48.48,0,0,1,.58.39.5.5,0,0,1-.39.59,39.24,39.24,0,0,0-3.88,1A.36.36,0,0,1,583.69,305.66Zm20-1h-.1c-1.3-.25-2.63-.45-4-.58a.5.5,0,0,1-.45-.55.51.51,0,0,1,.55-.45c1.36.14,2.72.34,4,.6a.51.51,0,0,1,.39.59A.5.5,0,0,1,603.7,304.7Zm-12.09-.6a.49.49,0,0,1-.49-.45.5.5,0,0,1,.45-.55c1.33-.12,2.69-.19,4-.19a.51.51,0,0,1,.52.5.48.48,0,0,1-.47.5h0c-1.32,0-2.65.06-4,.19Z"/></g></g></svg>